<svg width="1969" height="1499" xmlns="http://www.w3.org/2000/svg" xmlns:xlink="http://www.w3.org/1999/xlink" xml:space="preserve" overflow="hidden"><g transform="translate(-1311 -402)"><path d="M1346.64 436.5C1345.68 462.281 1349.77 495.62 1356.26 524.266 1362.75 552.913 1369.25 579.845 1385.59 608.377 1401.94 636.91 1415.46 659.838 1454.34 695.461 1493.23 731.085 1479.67 718.061 1498 731.429 1516.34 744.798 1542.35 763.859 1574.41 785.747 1606.47 807.635 1655.73 835.637 1690.37 862.755 1725.01 889.874 1759.04 914.849 1782.26 948.457 1805.48 982.066 1823.9 1020.64 1829.7 1064.41 1835.51 1108.17 1832.72 1166.68 1817.11 1211.06 1801.49 1255.44 1765.27 1298.75 1736.01 1330.68 1706.76 1362.62 1679.59 1376.95 1641.59 1402.67 1603.58 1428.38 1545.24 1455.92 1507.96 1484.96 1470.67 1514 1449.75 1537.9 1417.87 1576.89 1385.98 1615.88 1360.04 1675.85 1354.42 1701.29 1348.81 1726.73 1344.81 1782.76 1348.93 1792.5" stroke="#134774" stroke-width="68.75" stroke-linecap="round" stroke-miterlimit="8" fill="none" fill-rule="evenodd"/><path d="M1831.86 1792C1832.82 1766.22 1828.73 1732.88 1822.24 1704.23 1815.75 1675.59 1809.25 1648.66 1792.91 1620.12 1776.56 1591.59 1763.04 1568.66 1724.16 1533.04 1685.27 1497.42 1698.83 1510.44 1680.5 1497.07 1662.16 1483.7 1636.15 1464.64 1604.09 1442.75 1572.03 1420.87 1522.77 1392.86 1488.13 1365.74 1453.49 1338.63 1419.46 1313.65 1396.24 1280.04 1373.02 1246.43 1354.6 1207.86 1348.8 1164.09 1342.99 1120.33 1345.78 1061.82 1361.39 1017.44 1377.01 973.064 1413.23 929.754 1442.49 897.819 1471.74 865.884 1498.91 851.545 1536.92 825.833 1574.92 800.12 1633.26 772.579 1670.54 743.542 1707.83 714.505 1728.75 690.604 1760.63 651.611 1792.52 612.617 1818.46 552.651 1824.08 527.212 1829.69 501.773 1833.69 445.744 1829.57 436" stroke="#134774" stroke-width="59.5833" stroke-linecap="round" stroke-miterlimit="8" fill="none" fill-rule="evenodd"/><path d="M1430 509 1691.98 509" stroke="#C00000" stroke-width="59.5833" stroke-linecap="round" stroke-miterlimit="8" fill="none" fill-rule="evenodd"/><path d="M1490.5 624.5 1672.39 624.5" stroke="#A5A5A5" stroke-width="55" stroke-linecap="round" stroke-miterlimit="8" fill="none" fill-rule="evenodd"/><path d="M1430.5 1090.5 1692.48 1090.5" stroke="#92D050" stroke-width="68.75" stroke-linecap="round" stroke-miterlimit="8" fill="none" fill-rule="evenodd"/><path d="M1490.5 966.5 1636.21 966.5" stroke="#5B9BD5" stroke-width="55" stroke-linecap="round" stroke-miterlimit="8" fill="none" fill-rule="evenodd"/><path d="M1476 1213 1692.67 1213" stroke="#C00000" stroke-width="59.5833" stroke-linecap="round" stroke-miterlimit="8" fill="none" fill-rule="evenodd"/><path d="M1506.5 1616.5 1688.39 1616.5" stroke="#7030A0" stroke-width="55" stroke-linecap="round" stroke-miterlimit="8" fill="none" fill-rule="evenodd"/><path d="M1495 1729 1751.97 1729" stroke="#A5A5A5" stroke-width="59.5833" stroke-linecap="round" stroke-miterlimit="8" fill="none" fill-rule="evenodd"/><text fill="#134774" font-family="Hancom MalangMalang Bold,Hancom MalangMalang Bold_MSFontService,sans-serif" font-weight="700" font-size="440" transform="matrix(1 0 0 1 1977.08 1006)">PGM</text><text fill="#134774" font-family="Hancom MalangMalang Bold,Hancom MalangMalang Bold_MSFontService,sans-serif" font-weight="700" font-size="440" transform="matrix(1 0 0 1 1977.08 1534)">Lab</text></g></svg>