<svg width="386" height="234" xmlns="http://www.w3.org/2000/svg" xmlns:xlink="http://www.w3.org/1999/xlink" overflow="hidden"><defs><clipPath id="clip0"><rect x="0" y="0" width="386" height="234"/></clipPath></defs><g clip-path="url(#clip0)"><rect x="0" y="0" width="386" height="234.362" fill="#FFFFFF"/><path d="M209.746 100.267C210.188 96.043 210.336 91.739 210.19 87.3542 206.256 87.4994 202.402 87.3511 198.63 86.9089 198.76 84.3634 199.057 81.8402 199.519 79.3396 206.337 79.3396 213.155 79.3396 219.972 79.3396 220.046 88.0973 219.972 96.8542 219.75 105.61 216.409 107.715 212.778 109.125 208.857 109.84 199.708 111.775 191.112 110.439 183.068 105.832 174.762 98.9976 171.131 90.1665 172.175 79.3396 175.267 63.4814 184.901 55.3185 201.076 54.8506 206.086 55.1119 210.903 56.2251 215.526 58.19 216.106 58.548 216.402 59.0676 216.415 59.7484 215.896 61.8264 215.378 63.9039 214.859 65.982 214.687 66.3951 214.39 66.6922 213.97 66.8725 207.589 64.1613 200.994 63.4934 194.184 64.8688 187.784 67.4193 184.004 72.0944 182.846 78.8943 181.55 95.5558 189.183 103.051 205.744 101.38 207.186 101.199 208.52 100.828 209.746 100.267Z" fill="#E7E6E6" fill-rule="evenodd"/><path d="M240.35 109.599C236.717 109.879 233.267 109.583 230 108.711 231.465 91.1178 232.815 73.5135 234.05 55.8991 237.763 55.7588 241.439 55.907 245.075 56.3428 250.591 67.37 255.991 78.465 261.275 89.628 266.94 78.6012 272.49 67.5062 277.925 56.3428 281.411 55.907 284.936 55.7592 288.5 55.8991 290.254 73.7754 291.754 91.6752 293 109.599 289.55 109.599 286.1 109.599 282.65 109.599 281.87 97.3083 280.895 85.0301 279.725 72.7635 274.885 82.1627 270.16 91.6308 265.55 101.167 262.55 101.758 259.55 101.758 256.55 101.167 252.256 91.6596 247.831 82.1915 243.275 72.7635 241.881 85.004 240.906 97.2826 240.35 109.599Z" fill="#E7E6E6" fill-rule="evenodd"/><path d="M126 55.8759C133.803 55.801 141.604 55.8759 149.404 56.1002 151.076 56.2827 152.695 56.6568 154.262 57.2215 160.612 59.7114 164.513 64.3466 165.964 71.1264 166.506 83.0573 160.986 89.9352 149.404 91.7594 144.988 91.7594 140.572 91.7594 136.156 91.7594 135.717 97.6605 135.57 103.641 135.715 109.701 132.624 109.701 129.533 109.701 126.442 109.701 126.588 98.2611 126.441 86.8977 126 75.6119 126 69.033 126 62.4546 126 55.8759ZM136.598 65.2954C136.598 71.1265 136.598 76.9575 136.598 82.7886 140.575 82.863 144.549 82.7886 148.521 82.5643 152.829 81.2572 155.037 78.3418 155.145 73.8177 154.919 68.6541 152.27 65.8134 147.196 65.2954 143.664 65.2954 140.131 65.2954 136.598 65.2954Z" fill="#E7E6E6" fill-rule="evenodd"/><path d="M136.156 128.65C136.156 143.129 136.156 157.608 136.156 172.087 144.104 172.087 152.052 172.087 160 172.087 160 174.894 160 177.701 160 180.508 148.667 180.508 137.333 180.508 126 180.508 126 163.222 126 145.936 126 128.65 129.385 128.65 132.77 128.65 136.156 128.65Z" fill="#E7E6E6" fill-rule="evenodd"/><path d="M180.973 142.612C185.551 142.629 189.542 144.413 192.947 147.965 193.376 148.175 193.829 148.247 194.305 148.182 194.747 146.971 194.898 145.667 194.758 144.27 197.172 144.27 199.586 144.27 202 144.27 202 156.296 202 168.322 202 180.348 199.349 180.208 196.783 180.353 194.305 180.783 194.191 178.837 194.116 176.809 194.079 174.697 189.772 180.473 183.962 182.574 176.652 181 166.884 177.835 162.358 171.242 163.073 161.223 162.942 152.114 167.318 146.101 176.2 143.184 177.856 142.797 179.447 142.606 180.973 142.612ZM180.726 150.356C176.138 151.796 173.347 154.839 172.352 159.484 171.506 165.023 173.392 169.442 178.01 172.742 186.579 175.111 191.935 172.141 194.079 163.831 194.685 154.776 190.234 150.285 180.726 150.356Z" fill="#E7E6E6" fill-rule="evenodd"/><path d="M214 127.652 214.453 127.652C214.605 127.726 213.547 128.023 214.907 128.097L222.614 128.097C222.462 135.374 222.613 142.037 223.067 148.086L223.52 148.086C223.453 148.553 223.528 148.997 223.747 149.418 227.436 143.212 232.952 140.917 240.294 142.533 247.52 143.987 252.129 148.207 254.121 155.193 256.307 163.726 254.418 171.203 248.454 177.625 243.204 180.964 237.461 182.148 231.227 181.178 228.345 180.139 226.078 178.362 224.427 175.848 223.997 175.633 223.544 175.56 223.067 175.626L223.067 180.956 214 180.956 214 127.652ZM231.68 149.862C226.119 151.649 223.399 155.425 223.52 161.189 223.214 166.216 225.178 170.066 229.414 172.739 234.712 174.559 239.169 173.448 242.787 169.407 244.72 165.937 245.324 162.235 244.6 158.302 242.532 152.217 238.225 149.403 231.68 149.862Z" fill="#E7E6E6" fill-rule="evenodd"/><path d="M99.6968 18.2221C99.8436 18.2472 99.9906 18.2723 100.137 18.2974 100.087 18.5902 100.037 18.8827 99.9864 19.1756 86.7893 16.846 73.5678 14.6634 60.3221 12.6271 59.775 12.9657 59.1988 13.2438 58.5926 13.4616 58.4331 13.1659 58.4099 12.8605 58.5233 12.5458 58.5736 12.2529 58.7453 12.1318 59.039 12.1819 59.589 12.2935 60.067 12.1491 60.473 11.7489 73.572 13.7601 86.6463 15.9178 99.6968 18.2221Z" fill="#C51B1A" fill-rule="evenodd"/><path d="M99.9864 19.1756C99.891 19.4382 99.7067 19.6327 99.433 19.759 86.356 17.601 73.2561 15.5895 60.1337 13.7248 59.1326 14.9939 58.2944 16.3571 57.6185 17.815 56.7741 16.9788 56.4972 15.9521 56.7876 14.7353 56.8224 13.5412 57.4008 12.8115 58.5233 12.5459 58.4099 12.8605 58.4331 13.1659 58.5926 13.4616 59.1988 13.2438 59.775 12.9657 60.3222 12.6271 73.5678 14.6634 86.7893 16.8462 99.9864 19.1756Z" fill="#B12425" fill-rule="evenodd"/><path d="M100.137 18.2974C100.431 18.3476 100.724 18.3977 101.018 18.4478 101.329 19.1619 101.742 19.8348 102.257 20.4674 102.712 23.6804 101.393 25.6396 98.3019 26.3455 85.0427 24.3823 71.8339 22.1263 58.6753 19.5774 58.2209 19.0302 57.8686 18.4426 57.6184 17.815 58.2943 16.3571 59.1326 14.9938 60.1336 13.7248 73.256 15.5896 86.3559 17.601 99.433 19.7591 99.7067 19.6327 99.891 19.4382 99.9863 19.1756 100.037 18.8827 100.087 18.5902 100.137 18.2974Z" fill="#B72322" fill-rule="evenodd"/><path d="M62.4886 29.0422C72.3355 30.6486 82.156 32.4013 91.9505 34.3002 95.5341 37.8601 95.0565 40.6408 90.5178 42.6431 80.4874 41.2314 70.5077 39.5269 60.5778 37.5295 57.4912 33.8597 58.128 31.0305 62.4886 29.0422Z" fill="#EDEDED" fill-rule="evenodd"/><path d="M43.552 2.07922C45.829 1.84929 47.5757 2.67455 48.7917 4.55598 48.4906 9.60832 48.2233 14.6854 47.989 19.7861 48.2313 22.6014 48.6595 25.3863 49.2736 28.1412 53.6867 40.9975 61.5235 51.225 72.7834 58.8232 84.0126 55.7237 93.6835 49.9929 101.795 41.6314 105.234 37.7604 107.726 33.3648 109.272 28.4451 110.599 24.1456 111.866 19.8423 113.075 15.5354 116.769 13.5004 119.482 14.4158 121.214 18.2815 120.627 23.6365 119.428 28.8555 117.619 33.9387 109.762 49.3871 97.6097 59.8919 81.1624 65.4521 90.189 73.092 97.3084 82.2175 102.521 92.8288 107.373 104.265 107.37 115.715 102.514 127.178 98.3801 134.927 92.7455 141.347 85.6098 146.438 79.2931 150.525 72.7165 154.072 65.8805 157.079 74.3776 164.602 80.9224 173.554 85.5153 183.936 89.5745 193.606 90.4358 203.546 88.0989 213.756 87.3965 214.766 86.4513 215.433 85.2625 215.757 82.0408 216.21 80.0763 214.895 79.3684 211.813 81.6967 195.644 77.206 181.77 65.8952 170.189 62.6972 166.603 59.1871 163.292 55.3645 160.255 52.1586 161.68 48.9094 163.008 45.6161 164.24 29.6856 171.375 19.8275 183.477 16.0413 200.544 15.5498 202.281 14.407 203.215 12.6139 203.349 9.79641 203.707 7.9533 202.564 7.08459 199.919 7.78471 192.717 9.99368 186.014 13.7109 179.807 21.9768 167.794 32.9095 159.115 46.5075 153.771 41.8831 149.474 37.5342 144.89 33.4605 140.017 31.4162 137.318 29.5559 134.515 27.8801 131.606 18.9797 114.64 20.2515 98.4358 31.6963 82.9922 40.271 73.4682 50.5956 66.5686 62.67 62.2936 58.6306 58.9253 54.8776 55.271 51.4096 51.3309 39.955 37.5498 36.2189 21.9214 40.1998 4.44455 41.0739 3.31322 42.1914 2.52469 43.552 2.07922ZM70.6086 68.8472C65.1428 70.9171 59.7591 73.2369 54.4577 75.8063 46.21 80.341 39.7555 86.6962 35.0947 94.872 30.093 105.795 30.3628 116.538 35.905 127.101 41.3407 136.306 48.4053 143.992 57.0989 150.156 67.3556 147.231 76.5819 142.328 84.7777 135.448 98.1586 121.677 100.186 106.355 90.8587 89.481 85.3908 81.3123 78.6409 74.4342 70.6086 68.8472Z" fill="#FFFFFF" fill-rule="evenodd"/><path d="M55.3518 81.1567C64.0246 82.5625 72.6713 84.1148 81.2915 85.8131 84.6665 88.6666 84.5077 91.3513 80.8148 93.8672 80.3494 93.9383 79.8839 94.0097 79.4185 94.0808 71.0026 92.9448 62.6371 91.516 54.3217 89.7944 51.6027 87.8189 51.1852 85.4123 53.0688 82.5747 53.8024 81.9903 54.5634 81.5173 55.3518 81.1567Z" fill="#4492C0" fill-rule="evenodd"/><path d="M86.3014 106.782C71.6368 104.202 56.9479 101.768 42.2343 99.4812 41.8284 99.8816 41.3504 100.026 40.8003 99.9142 41.3791 99.0594 42.2005 98.6723 43.2657 98.7535 57.552 100.892 71.7886 103.324 85.9743 106.048 86.1902 106.258 86.2991 106.503 86.3014 106.782Z" fill="#A6D24B" fill-rule="evenodd"/><path d="M86.3016 106.782C88.6355 108.521 89.0176 110.696 87.4474 113.305 86.6335 114.268 85.6272 114.849 84.4285 115.05 69.7182 112.675 55.067 110.022 40.4745 107.09 38.3301 104.55 38.4391 102.158 40.8003 99.9144 41.3505 100.026 41.8284 99.8816 42.2343 99.4814 56.948 101.768 71.6369 104.202 86.3016 106.782Z" fill="#9CD22B" fill-rule="evenodd"/><path d="M40.4745 107.09C55.067 110.022 69.7182 112.675 84.4285 115.05 70.0325 113.117 55.6368 110.734 41.242 107.899 40.8596 107.709 40.6041 107.439 40.4745 107.09Z" fill="#CCE88D" fill-rule="evenodd"/><path d="M77.9264 123.883C67.371 122.004 56.7913 120.273 46.1874 118.688 45.8687 118.784 45.5503 118.88 45.2315 118.976 56.0823 120.905 66.9053 122.98 77.7002 125.2 67.0733 123.761 56.4686 122.176 45.8858 120.444 56.5492 122.567 67.2634 124.397 78.0273 125.934 78.758 125.952 79.2611 125.661 79.5367 125.062 81.016 126.513 81.2533 128.211 80.2483 130.155 79.3774 131.563 78.1133 132.326 76.456 132.445 65.0426 130.939 53.7667 128.863 42.6287 126.215 39.9357 122.27 40.8535 119.564 45.3823 118.098 56.3805 119.601 67.2281 121.53 77.9264 123.883Z" fill="#B82826" fill-rule="evenodd"/><path d="M77.9263 123.882C78.642 124.077 79.1788 124.47 79.5367 125.062 79.2611 125.661 78.7579 125.952 78.0273 125.934 67.2633 124.397 56.5491 122.567 45.8858 120.444 56.4685 122.176 67.0732 123.761 77.7001 125.2 66.9052 122.979 56.0822 120.905 45.2314 118.976 45.5502 118.88 45.8686 118.784 46.1874 118.688 56.7913 120.273 67.3709 122.004 77.9263 123.882Z" fill="#BA1A19" fill-rule="evenodd"/><path d="M64.8907 181.317C66.6016 182.28 67.4025 183.773 67.2942 185.795 66.7541 188.111 65.3285 189.374 63.0177 189.585 54.6382 188.229 46.2852 186.727 37.9587 185.079 36.6154 183.917 36.108 182.475 36.4358 180.751 36.5755 178.876 37.5357 177.684 39.316 177.175 47.8646 178.409 56.3898 179.79 64.8907 181.317Z" fill="#683F92" fill-rule="evenodd"/><path d="M72.2153 202.003C72.395 203.341 72.3152 204.683 71.977 206.03 70.9121 207.23 69.5745 207.981 67.9645 208.283 54.5587 206.295 41.2028 204.013 27.8977 201.44 27.0471 200.787 26.3531 199.991 25.8153 199.05 24.9726 195.93 26.0226 193.774 28.9654 192.582 42.5183 194.596 56.0204 196.902 69.4726 199.501 70.7909 199.966 71.705 200.8 72.2153 202.003Z" fill="#EDEDED" fill-rule="evenodd"/><path d="M323.846 28.9212C325.566 29.0917 326.951 29.8042 328 31.0583 327.185 32.4299 326.262 33.7121 325.231 34.905 323.972 34.3238 322.895 33.5403 322 32.5543 322.812 31.4066 323.428 30.1958 323.846 28.9212Z" fill="#24BBA1" fill-rule="evenodd"/><path d="M337 36.9224C337.421 36.8576 337.821 36.9299 338.2 37.1399 339.15 38.0862 340.083 39.0285 341 39.9666 340.207 41.406 339.274 42.7106 338.2 43.8805 336.806 43.1616 335.739 42.0745 335 40.6189 335.618 39.346 336.285 38.114 337 36.9224Z" fill="#1CBC9E" fill-rule="evenodd"/><path d="M308.8 41.886C309.905 42.2848 310.972 42.8134 312 43.4726 311.319 44.4857 310.919 45.619 310.8 46.8724 309.867 46.5701 308.933 46.2681 308 45.9658 308.102 44.5615 308.369 43.2015 308.8 41.886Z" fill="#30B998" fill-rule="evenodd"/><path d="M349.294 47.8697C351.204 48.7817 352.773 50.0818 354 51.7708 352.588 52.7973 351.176 53.824 349.765 54.8506 348.174 53.8733 346.919 52.6413 346 51.1548 347.109 50.0518 348.207 48.9566 349.294 47.8697Z" fill="#1BBF9F" fill-rule="evenodd"/><path d="M320.846 49.8642C322.555 50.0146 323.94 50.7073 325 51.9419 324.074 52.9827 323.074 53.9522 322 54.8506 320.786 54.2426 319.786 53.4116 319 52.3574 319.809 51.6319 320.424 50.8008 320.846 49.8642Z" fill="#23BD97" fill-rule="evenodd"/><path d="M332.4 57.8424C333.832 58.7939 335.032 60.1233 336 61.8317 334.933 62.829 333.867 63.8262 332.8 64.8236 331.733 63.8262 330.8 62.6628 330 61.3329 330.809 60.1597 331.609 58.9963 332.4 57.8424Z" fill="#22BD99" fill-rule="evenodd"/><path d="M360 60.8401C360.443 60.8021 360.813 60.95 361.111 61.283 362.074 62.9073 363.037 64.531 364 66.1551 362.483 67.204 360.853 68.0899 359.111 68.8126 357.995 67.3281 356.958 65.7778 356 64.162 357.157 62.847 358.49 61.7397 360 60.8401Z" fill="#18BD9E" fill-rule="evenodd"/><path d="M308.339 61.8316C311.555 62.6438 311.856 63.9738 309.242 65.8209 306.592 64.9109 306.291 63.5813 308.339 61.8316Z" fill="#32BB90" fill-rule="evenodd"/><path d="M318.083 68.8126C319.186 69.6349 320.158 70.6044 321 71.7213 320.183 72.4095 319.35 73.1022 318.5 73.799 317.528 73.1064 316.695 72.2753 316 71.3058 316.704 70.4669 317.398 69.6358 318.083 68.8126Z" fill="#34B784" fill-rule="evenodd"/><path d="M342.2 69.8098C343.62 70.7174 344.554 72.0992 345 73.9549 344.103 75.2879 342.903 76.2333 341.4 76.791 340.6 75.482 339.8 74.1731 339 72.864 340.074 71.8361 341.141 70.8182 342.2 69.8098Z" fill="#23BC99" fill-rule="evenodd"/><path d="M368.211 76.8089C368.837 76.7377 369.39 76.8772 369.868 77.2278 370.726 79.2929 371.436 81.3877 372 83.5123 369.792 83.93 367.582 84.349 365.368 84.7692 364.913 82.7766 364.124 80.8913 363 79.1133 364.765 78.3323 366.502 77.5643 368.211 76.8089Z" fill="#1DBCA0" fill-rule="evenodd"/><path d="M326.724 77.7882C329.883 80.2374 329.754 82.2318 326.335 83.772 325.288 82.9926 324.51 81.9183 324 80.5499 324.916 79.6188 325.823 78.6982 326.724 77.7882Z" fill="#35B771" fill-rule="evenodd"/><path d="M350.5 82.7746C351.613 84.3317 352.447 86.0523 353 87.937 352.656 88.8066 351.989 89.3539 351 89.5796 349.75 89.7555 348.584 90.1465 347.5 90.7528 346.56 88.7278 345.727 86.6943 345 84.6518 347.017 84.4055 348.85 83.7798 350.5 82.7746Z" fill="#23BCA0" fill-rule="evenodd"/><path d="M333.231 88.7649C333.69 88.7221 334.075 88.8884 334.385 89.263 335.196 91.0111 335.735 92.8375 336 94.7429 334.763 94.7241 333.609 95.0563 332.538 95.7393 331.466 94.4257 330.62 92.9312 330 91.2558 331.189 90.5369 332.266 89.7064 333.231 88.7649Z" fill="#35B576" fill-rule="evenodd"/><path d="M373.529 94.742C374.078 94.742 374.628 94.742 375.176 94.742 375.566 97.3864 375.841 100.046 376 102.72 373.941 102.72 371.882 102.72 369.824 102.72 369.549 100.357 369.275 97.9923 369 95.6285 370.643 95.7986 372.152 95.503 373.529 94.742Z" fill="#1DBDA4" fill-rule="evenodd"/><path d="M334 102.72C335.513 102.72 337.027 102.72 338.541 102.72 338.879 104.361 339.03 106.023 338.995 107.707 337.482 107.707 335.968 107.707 334.454 107.707 334.253 106.05 334.102 104.388 334 102.72Z" fill="#2EB57F" fill-rule="evenodd"/><path d="M353.267 98.7312C354.2 98.7312 355.133 98.7312 356.067 98.7312 356.438 100.759 356.749 102.795 357 104.84 354.948 104.968 352.926 105.259 350.933 105.712 350.317 103.716 350.006 101.681 350 99.6038 351.198 99.5074 352.287 99.2163 353.267 98.7312Z" fill="#1DBBA4" fill-rule="evenodd"/><path d="M355.692 114.688C356.462 114.688 357.231 114.688 358 114.688 358 116.682 358 118.677 358 120.671 356 120.671 354 120.671 352 120.671 352 118.81 352 116.948 352 115.087 353.332 115.209 354.562 115.076 355.692 114.688Z" fill="#06BAA8" fill-rule="evenodd"/><path d="M375 113.69C373.595 114.124 372.096 114.272 370.503 114.134 370.503 116.645 370.503 119.157 370.503 121.669 370.058 119.094 369.908 116.434 370.054 113.69 371.703 113.69 373.351 113.69 375 113.69Z" fill="#82DDD0" fill-rule="evenodd"/><path d="M375.667 113.69C376.445 113.69 377.222 113.69 378 113.69 378 116.35 378 119.009 378 121.669 375.667 121.669 373.333 121.669 371 121.669 371 119.157 371 116.645 371 114.134 372.653 114.272 374.208 114.124 375.667 113.69Z" fill="#0CBBA3" fill-rule="evenodd"/><path d="M338.751 120.219C339.35 120.219 339.951 120.219 340.55 120.219 340.625 118.975 340.549 117.738 340.325 116.509 339.102 116.12 337.828 115.983 336.501 116.097 336.501 117.471 336.501 118.845 336.501 120.219 336.06 118.792 335.91 117.28 336.052 115.685 337.701 115.685 339.35 115.685 341 115.685 341 117.334 341 118.982 341 120.631 340.139 120.748 339.389 120.611 338.751 120.219Z" fill="#65BB9C" fill-rule="evenodd"/><path d="M338.207 120.671C337.471 120.671 336.736 120.671 336 120.671 336 119.025 336 117.378 336 115.732 337.301 115.595 338.552 115.759 339.752 116.226 339.972 117.699 340.046 119.181 339.973 120.671 339.384 120.671 338.796 120.671 338.207 120.671Z" fill="#1FB781" fill-rule="evenodd"/><path d="M377.514 113.69C377.944 116.255 378.088 118.898 377.948 121.619 375.549 121.753 373.232 121.614 371 121.202 373.171 121.202 375.343 121.202 377.514 121.202 377.514 118.698 377.514 116.194 377.514 113.69Z" fill="#C3F9F1" fill-rule="evenodd"/><path d="M356 114.688C354.926 115.076 353.756 115.209 352.49 115.087 352.49 116.948 352.49 118.81 352.49 120.671 352.057 118.755 351.911 116.76 352.052 114.688 353.368 114.688 354.684 114.688 356 114.688Z" fill="#85E4DC" fill-rule="evenodd"/><path d="M335.386 128.65C336.892 128.966 338.43 129.094 340 129.033 339.82 130.314 339.589 131.593 339.308 132.869 339.129 133.225 338.821 133.481 338.385 133.636 337.278 133.427 336.202 133.172 335.156 132.869 334.888 131.449 334.966 130.042 335.386 128.65Z" fill="#23BA9D" fill-rule="evenodd"/><path d="M350.467 129.647C352.654 129.899 354.831 130.212 357 130.586 356.81 132.949 356.499 135.296 356.067 137.625 354.063 137.083 352.041 136.613 350 136.217 350.155 134.027 350.311 131.837 350.467 129.647Z" fill="#1BBAAA" fill-rule="evenodd"/><path d="M369.889 132.639C372.253 132.98 374.624 133.279 377 133.536 376.503 136.249 375.91 138.942 375.222 141.614 373.188 140.973 371.114 140.524 369 140.268 369.527 137.755 369.824 135.212 369.889 132.639Z" fill="#1BBDA6" fill-rule="evenodd"/><path d="M332.154 140.617C333.527 140.974 334.809 141.612 336 142.532 335.523 143.917 335.01 145.273 334.462 146.601 333.168 146.597 332.014 146.039 331 144.925 331.5 143.524 331.885 142.088 332.154 140.617Z" fill="#27B7AD" fill-rule="evenodd"/><path d="M347.647 145.604C349.394 146.284 351.178 146.844 353 147.283 352.479 149.467 351.724 151.566 350.735 153.582 349.263 152.662 347.753 151.822 346.206 151.062 345.931 150.503 345.931 149.942 346.206 149.383 346.692 148.114 347.172 146.854 347.647 145.604Z" fill="#17B9AD" fill-rule="evenodd"/><path d="M365.25 150.59C367.151 151.253 369.101 151.781 371.1 152.177 371.518 152.352 371.818 152.655 372 153.083 370.817 155.525 369.768 158.018 368.85 160.563 367.05 159.807 365.25 159.052 363.45 158.296 363.3 157.994 363.15 157.692 363 157.39 363.683 155.085 364.433 152.819 365.25 150.59Z" fill="#1BBDA5" fill-rule="evenodd"/><path d="M327.308 152.584C328.795 153.093 330.026 153.937 331 155.116 330.263 156.519 329.263 157.67 328 158.568 326.87 157.904 325.87 157.059 325 156.037 325.872 154.94 326.641 153.789 327.308 152.584Z" fill="#23B7C0" fill-rule="evenodd"/><path d="M341.316 159.565C343.357 160.425 345.252 161.528 347 162.872 345.907 164.901 344.644 166.791 343.211 168.541 341.432 167.402 339.695 166.221 338 164.998 339.17 163.213 340.275 161.403 341.316 159.565Z" fill="#1FBAB3" fill-rule="evenodd"/><path d="M319.531 162.557C323.981 164.259 324.15 166.253 320.038 168.541 318.856 167.774 317.844 166.853 317 165.779 317.725 164.611 318.568 163.537 319.531 162.557Z" fill="#23B7C5" fill-rule="evenodd"/><path d="M357.636 168.541C359.806 169.6 361.926 170.792 364 172.118 362.649 174.721 361.134 177.186 359.455 179.511 357.456 178.307 355.638 176.876 354 175.218 355.218 172.98 356.43 170.754 357.636 168.541Z" fill="#19BDA5" fill-rule="evenodd"/><path d="M309.572 171.533C314.055 173.076 314.141 174.738 309.829 176.519 308.705 175.679 307.762 174.697 307 173.573 308.111 173.121 308.968 172.441 309.572 171.533Z" fill="#21B8CC" fill-rule="evenodd"/><path d="M332.111 173.527C334.08 174.01 335.709 175.044 337 176.63 335.506 178.266 334.024 179.892 332.556 181.506 331.133 180.457 329.948 179.201 329 177.738 330.127 176.393 331.164 174.99 332.111 173.527Z" fill="#1EB9BA" fill-rule="evenodd"/><path d="M299.273 178.543C299.807 178.444 300.261 178.594 300.636 178.994 301.091 179.895 301.546 180.796 302 181.698 301.046 182.358 300.061 182.959 299.046 183.5 298.142 182.615 297.461 181.564 297 180.346 297.689 179.633 298.446 179.032 299.273 178.543Z" fill="#21B9D0" fill-rule="evenodd"/><path d="M287.05 183.526C287.532 183.441 287.942 183.57 288.28 183.913 289.769 186.668 288.949 187.831 285.82 187.403 285.516 186.574 285.242 185.734 285 184.883 285.583 184.253 286.266 183.801 287.05 183.526Z" fill="#24B8D2" fill-rule="evenodd"/><path d="M272 185.495C273 185.495 274 185.495 275 185.495 275 186.825 275 188.154 275 189.484 274 189.484 273 189.484 272 189.484 272 188.154 272 186.825 272 185.495Z" fill="#22B4CD" fill-rule="evenodd"/><path d="M321 184.497C322.655 185.272 323.988 186.435 325 187.988 323.434 189.23 321.804 190.394 320.111 191.479 319.074 190.11 318.037 188.741 317 187.372 318.48 186.548 319.813 185.59 321 184.497Z" fill="#1BBAC4" fill-rule="evenodd"/><path d="M346.091 184.497C348.439 185.5 350.408 187.09 352 189.267 350.504 191.633 348.686 193.7 346.546 195.468 344.707 194.016 343.192 192.268 342 190.221 343.386 188.296 344.75 186.388 346.091 184.497Z" fill="#19BEA7" fill-rule="evenodd"/><path d="M307.235 192.508C307.788 192.399 308.259 192.565 308.647 193.005 309.491 194.371 310.275 195.778 311 197.226 309.234 198.365 307.43 199.441 305.588 200.454 304.785 198.677 303.923 196.939 303 195.24 304.53 194.462 305.942 193.552 307.235 192.508Z" fill="#18B9C6" fill-rule="evenodd"/><path d="M332.5 198.46C334.249 199.883 335.749 201.617 337 203.663 335.288 205.404 333.447 206.994 331.477 208.432 330.238 206.612 329.079 204.733 328 202.796 329.508 201.341 331.008 199.895 332.5 198.46Z" fill="#1BBCAA" fill-rule="evenodd"/><path d="M293.667 198.46C294.739 199.785 295.517 201.281 296 202.947 294.107 203.833 292.085 204.332 289.933 204.443 289.816 202.841 289.505 201.274 289 199.742 290.673 199.539 292.228 199.111 293.667 198.46Z" fill="#24B7C8" fill-rule="evenodd"/><path d="M259.416 202.449C260.611 202.449 261.805 202.449 263 202.449 263 204.111 263 205.773 263 207.435 261.673 207.435 260.345 207.435 259.018 207.435 258.948 205.743 259.08 204.08 259.416 202.449Z" fill="#1EB7CD" fill-rule="evenodd"/><path d="M274.05 202.449C275.563 202.449 277.075 202.449 278.588 202.449 278.861 204.274 278.998 206.115 279 207.972 277.457 207.853 275.945 208.006 274.462 208.432 274.053 206.461 273.915 204.467 274.05 202.449Z" fill="#33BBCC" fill-rule="evenodd"/><path d="M316.714 208.439C317.189 208.398 317.585 208.556 317.905 208.913 318.756 210.848 319.788 212.667 321 214.371 318.751 215.804 316.45 217.148 314.095 218.405 313.006 216.313 311.974 214.177 311 211.998 312.841 210.686 314.746 209.5 316.714 208.439Z" fill="#1ABBAF" fill-rule="evenodd"/><path d="M299.333 216.411C299.778 216.411 300.222 216.411 300.667 216.411 301.32 218.461 301.764 220.56 302 222.709 299.892 223.137 297.818 223.697 295.778 224.389 294.961 222.564 294.369 220.675 294 218.72 295.745 217.823 297.523 217.053 299.333 216.411Z" fill="#15BAB3" fill-rule="evenodd"/><path d="M241.867 216.411C243.652 216.579 245.362 217.015 247 217.72 246.494 219.653 245.872 221.544 245.133 223.392 243.318 222.825 241.606 222.098 240 221.21 240.758 219.648 241.381 218.049 241.867 216.411Z" fill="#31B7C7" fill-rule="evenodd"/><path d="M257.464 220.4C259.611 220.698 261.776 220.834 263.958 220.809 264.084 222.609 263.929 224.381 263.494 226.126 261.344 226.469 259.18 226.469 257 226.126 257.231 224.223 257.385 222.314 257.464 220.4Z" fill="#13B7BC" fill-rule="evenodd"/><path d="M278.059 220.4C279.569 220.4 281.078 220.4 282.588 220.4 282.562 222.589 282.7 224.761 283 226.915 280.664 227.036 278.331 227.191 276 227.381 276 225.209 276 223.037 276 220.865 276.789 220.997 277.475 220.842 278.059 220.4Z" fill="#22BABA" fill-rule="evenodd"/></g></svg>