<svg xmlns="http://www.w3.org/2000/svg" width="655.48248mm" height="127.89902mm" viewBox="0 0 655.48248 127.89902"><path d="M172.945 7.602c0 2.718 2.211 4.93 4.926 4.93 2.719 0 4.93-2.212 4.93-4.93a4.931 4.931 0 0 0-4.93-4.926 4.93 4.93 0 0 0-4.926 4.926" style="fill:#fff;fill-opacity:1;fill-rule:nonzero;stroke:none" transform="translate(-1824.291 -28.225) scale(10.54837)"/><path d="M173.09 7.602a4.79 4.79 0 0 1 4.781-4.786 4.79 4.79 0 0 1 4.781 4.786 4.79 4.79 0 0 1-4.78 4.785 4.79 4.79 0 0 1-4.782-4.785" style="fill:#172657;fill-opacity:1;fill-rule:nonzero;stroke:none" transform="translate(-1824.291 -28.225) scale(10.54837)"/><path d="M177.871 11.086a3.483 3.483 0 0 1-3.484-3.484 3.483 3.483 0 0 1 3.484-3.485 3.483 3.483 0 0 1 3.484 3.485 3.483 3.483 0 0 1-3.484 3.484M173.84 8.734c0 .075.058.133.133.133a.135.135 0 0 0 .136-.133.135.135 0 0 0-.136-.132.132.132 0 0 0-.133.132M181.953 8.754a.138.138 0 0 1-.137.137.136.136 0 0 1-.136-.137c0-.074.058-.137.136-.137.075 0 .137.063.137.137M174.227 6.418c-.043.148-.207.215-.391.156-.227-.07-.219-.207-.195-.285a.225.225 0 0 1 .117-.137.317.317 0 0 1 .262-.007c.101.03.167.074.199.132a.18.18 0 0 1 .008.141m-.196-.422a.342.342 0 0 0-.257.016.388.388 0 0 0-.18.234.393.393 0 0 0 .016.293.351.351 0 0 0 .21.176c.168.05.38 0 .454-.242a.378.378 0 0 0-.016-.293.383.383 0 0 0-.227-.184" style="fill:#fff;fill-opacity:1;fill-rule:nonzero;stroke:none" transform="translate(-1824.291 -28.225) scale(10.54837)"/><path d="m174.977 5.125-.122-.117.024-.028.055.036c.07.035.12 0 .144-.028.05-.05.043-.113.012-.144-.031-.032-.07-.047-.16-.035l-.051.007c-.121.02-.195 0-.254-.054-.074-.07-.066-.184.023-.278.075-.078.114-.082.114-.082l.109.102-.027.027s-.024-.031-.07-.035c-.024-.004-.055-.004-.094.035-.043.047-.043.098-.008.133.027.02.058.031.152.016l.031-.004c.14-.024.211-.008.274.054a.185.185 0 0 1 .058.176.245.245 0 0 1-.074.13c-.035.042-.098.085-.137.089M180.887 5.281l.144-.097.02.03s-.04.036-.047.052c-.05.058-.024.117-.004.144.043.059.105.067.14.04.036-.024.06-.06.067-.145l.004-.055c.008-.121.039-.191.105-.234.086-.063.196-.032.266.078.059.086.059.129.059.129l-.125.086-.024-.036s.04-.015.055-.058a.098.098 0 0 0-.02-.098c-.035-.05-.082-.066-.125-.035-.027.02-.043.047-.046.145l-.004.03c-.008.141-.036.208-.11.259a.205.205 0 0 1-.183.02.253.253 0 0 1-.114-.102c-.03-.043-.066-.114-.058-.153M175.504 4.223c.035-.028.047-.016.074.023l.027-.023-.113-.149-.027.02c.027.039.039.05 0 .078l-.106.082-.136-.188s.082-.062.101-.078c.051-.039.074-.011.098.028l.027-.024-.086-.11-.355.266.02.028c.023-.02.07-.059.109-.004.035.05.297.398.297.398.043.059.02.07-.02.102l.02.027.367-.273-.094-.125-.023.02c.039.054.03.09-.008.116-.024.02-.114.086-.114.086l-.164-.222M180.258 4.262c.039.023.031.035.004.078l.027.015.106-.156-.032-.015c-.023.039-.035.05-.074.027l-.105-.074.125-.196s.09.059.11.075c.05.035.034.062.007.101l.027.02.078-.121-.37-.246-.016.027c.023.015.074.043.039.098l-.277.414c-.04.062-.059.043-.102.015l-.02.028.38.253.085-.128-.027-.016c-.035.059-.074.059-.11.035-.027-.02-.12-.078-.12-.078l.156-.234M175.887 3.684c-.02-.04 0-.051.047-.079l-.016-.027-.25.129.016.027s.062-.043.09.008c.011.024.246.477.246.477.019.039 0 .05-.051.078l.015.027.274-.14-.016-.028c-.043.024-.086.051-.11.004-.023-.047-.245-.476-.245-.476M177.348 3.516l-.055-.278c-.008-.043.012-.05.066-.058l-.008-.035-.242.05.008.032s.074-.028.086.03c0 .013.059.294.059.294.02.094.027.168-.004.222a.2.2 0 0 1-.11.07.174.174 0 0 1-.113-.015c-.043-.02-.082-.058-.11-.2l-.062-.304c-.008-.043.012-.047.067-.058l-.004-.036-.282.06.008.03s.074-.027.086.032c0 .011.063.308.063.308.023.113.062.184.129.223.082.05.175.031.21.023a.268.268 0 0 0 .176-.105c.063-.078.051-.184.032-.285M178.957 3.344c.012-.043.031-.04.086-.028l.008-.03-.277-.067-.008.031s.078.008.066.063c-.008.03-.121.527-.121.527-.012.043-.031.039-.086.023l-.008.035.297.067.008-.031c-.043-.008-.098-.016-.086-.067.016-.05.121-.523.121-.523M181.848 5.738c.039-.015.05 0 .078.051l.027-.016-.125-.253-.027.015s.043.063-.012.09l-.48.238c-.04.02-.051-.004-.075-.054l-.03.015.136.278.027-.016c-.02-.04-.047-.086 0-.11l.48-.238M182.078 6.066l-.14.024.011.035c.047-.008.078-.012.098.047.004.012.012.035.039.133l-.531.156c-.043.012-.051-.008-.067-.063l-.03.008.085.297.031-.012c-.015-.043-.035-.09.016-.105.047-.016.465-.137.531-.156.027.097.035.117.04.129.019.058-.012.074-.055.093l.011.04.13-.063M180.95 4.652c-.06.063-.106.063-.13.063-.02-.004-.027-.012-.05-.035l-.047-.043.21-.215.032.027c.035.035.07.117-.016.203m.16-.082a.332.332 0 0 0-.093-.144l-.188-.192-.023.024s.062.047.023.09c-.023.02-.379.382-.379.382-.035.032-.05.016-.09-.023l-.02.023.216.215.023-.02c-.031-.034-.074-.07-.039-.105l.145-.144.058.058-.027.153a.49.49 0 0 0-.004.183c.008.028.023.047.058.082l.067.067.02-.02-.016-.02c-.008-.011-.028-.042-.028-.113 0-.062.012-.148.024-.253l.004-.043c.105.007.172-.008.223-.06.05-.05.05-.112.046-.14M173.871 7.152c-.027-.004-.055-.004-.082-.02a3.883 3.883 0 0 1-.27-.194c-.023-.024-.027-.032-.035-.047-.008-.016-.008-.032-.008-.04 0-.007.004-.027.004-.027h-.035l-.02.227.032.004.004-.024c.004-.008.008-.011.015-.011.012 0 .028.007.043.015l.22.149s-.247.113-.266.12a.073.073 0 0 1-.028.009c-.004 0-.008-.004-.008-.008V7.28l-.03-.004-.024.258h.03s0-.031.016-.055c.012-.015.04-.035.067-.054.05-.028.258-.13.273-.133.028-.008.043-.016.09-.012a4 4 0 0 0 .152.016c.055.004.055.035.051.082h.031l.028-.3-.028-.005c-.008.051-.008.098-.074.094l-.148-.016M181.875 7.293c.027 0 .055-.004.09.008.035.008.258.113.297.14.023.016.035.024.047.04a.072.072 0 0 1 .011.035c0 .011.004.023.004.023l.031-.004-.023-.226-.031.003s0 .016.004.024c0 .008-.008.016-.016.016-.011 0-.027-.004-.043-.008a9.074 9.074 0 0 1-.246-.106s.219-.156.238-.168a.083.083 0 0 1 .028-.011c.004 0 .008 0 .008.004v.003a.067.067 0 0 1 .004.024l.035-.004-.028-.258-.03.004s.003.035-.009.059a.196.196 0 0 1-.054.066 5.322 5.322 0 0 1-.243.18c-.023.011-.039.023-.086.027 0 0-.093.012-.148.016-.062.008-.066-.028-.066-.07l-.036.003.032.301h.03c-.003-.05-.015-.098.052-.105l.148-.016M174.805 5.371l-.028.043-.664.149.325.203c.07.043.093-.012.117-.051l.027.015-.133.22-.031-.016c.023-.036.047-.07-.016-.11-.066-.039-.503-.308-.503-.308l.023-.04c.113-.023.656-.14.676-.144 0 0-.278-.172-.336-.21-.063-.036-.09.01-.106.042l-.027-.016.121-.203.027.02c-.015.031-.039.058.02.098.062.035.508.308.508.308M178.313 3.852l-.047-.004-.446-.52-.023.387c-.004.082.055.074.098.078v.031l-.258-.015.004-.032c.039 0 .082.008.086-.07l.035-.586.043.004c.074.086.437.512.45.523l.022-.394c.005-.07-.05-.07-.085-.074l.004-.032.234.016-.004.031c-.035 0-.07-.007-.078.063l-.035.594M179.969 3.676l.008-.031-.207-.09-.016.03.027.009c.004.004.012.011.008.02 0 .011-.011.023-.023.038l-.191.196-.125.12c0-.015.011-.265.02-.374l.003-.094c0-.004 0-.02.008-.023 0-.004.008-.008.02-.004l.026.011.012-.03-.242-.106-.012.03s.031.013.043.032c.012.016.016.043.016.074l-.012.649.027.008.368-.336.129-.118s.046-.039.09-.019M178.098 11.36v.21h-.059v-.21h-.14v.019c.011 0 .027.023.027.047v.46h-.297v-.41h.195v-.097h-.347v.016c.011 0 .027.027.027.05v.535h.422v.153c.008.004.11.004.113.004v-.469h.059v.469h.125v-.778M181.45 10.191c-.102-.086-.473-.39-.481-.398 0 0-.38.465-.39.473.01.004.07.054.077.058l.309-.37.402.331a1.147 1.147 0 0 1-.058.074s-.204-.168-.211-.172a1.789 1.789 0 0 0-.078.09c.008.004.21.172.21.172l-.039.051s-.207-.168-.21-.176a2.59 2.59 0 0 1-.086.106c0 .004.008.011.011.011.008-.011.035-.003.059.012l.156.129s-.086.102-.09.11l.075.062c.004-.008.457-.555.464-.559-.008-.004-.066-.058-.074-.062 0 .004-.023.027-.047.058M176.406 11.07c-.008.008-.32.696-.328.703.012.004.11.047.113.051.004-.008.32-.695.325-.703 0 0-.102-.05-.11-.05M176.23 10.988l-.004.016c.012.008.012.035.004.059l-.058.128s-.113-.05-.121-.05c-.004.007-.035.078-.04.086l.118.054-.195.422c.008.008.093.043.101.05 0-.01.32-.698.32-.706l-.125-.059" style="fill:#fff;fill-opacity:1;fill-rule:nonzero;stroke:none" transform="translate(-1824.291 -28.225) scale(10.54837)"/><path d="m175.906 11.203-.004-.004.004-.004a.603.603 0 0 0 .196-.246 2.97 2.97 0 0 1-.164-.074c0 .004-.004.016-.008.016.003.004.035.027.007.082 0 .004-.09.195-.351.28l.031.075s.086-.012.203-.078l.008-.004v.008c.016.035.043.09.07.23.009-.004.098-.054.102-.054a1.001 1.001 0 0 0-.094-.227M179.477 11.672c.004 0 .468-.223.468-.223l.07.153c.009-.004.106-.055.114-.055l-.117-.238c-.004.003-.57.277-.578.277.004.008.039.082.043.086M179.79 10.848c-.005.004-.13.062-.138.066a.03.03 0 0 1 .008.016c.016-.008.04.007.051.035l.16.34.114-.055-.063-.129s.106-.047.11-.05c-.005-.008-.032-.075-.036-.079-.008 0-.11.051-.11.051s-.089-.188-.097-.195M179.531 11.387a.111.111 0 0 1-.148-.051.114.114 0 0 1 .05-.152.112.112 0 0 1 .145.054c.027.059.008.125-.047.149m-.25-.004c.047.094.176.133.285.078.11-.05.16-.176.114-.27a.18.18 0 0 0-.121-.097c.046-.02.082-.04.085-.04l-.043-.09a2.755 2.755 0 0 1-.156.075s-.023-.05-.031-.059c0 0-.129.067-.133.067 0 .008.004.012.004.016.012-.004.031.011.043.03l.004.005-.168.078.043.086s.031-.016.074-.035a.183.183 0 0 0 0 .156M174.52 10.246s-.098-.11-.102-.117l-.012.012c.008.011 0 .039-.02.054 0 0-.132.118-.14.121.008.004.387.442.39.45.009-.008.067-.063.075-.067l-.309-.355s.11-.094.118-.098M174.645 9.96c.05-.046.128-.042.167.005.043.05.036.125-.019.172a.121.121 0 0 1-.168-.008c-.043-.047-.031-.125.02-.168m.34.324-.051.043-.079-.09c.004-.004.012-.007.016-.015a.119.119 0 0 0 .031-.032l.082.094m-.23-.012.105.118s-.144.129-.152.132l.082.094.422-.367a2.933 2.933 0 0 0-.098-.113c-.004 0-.012.008-.015.011.011.008 0 .036-.02.051l-.023.024-.114-.133a.252.252 0 0 0-.058-.184c-.086-.097-.227-.113-.317-.035s-.093.223-.008.317c.051.062.13.09.196.085" style="fill:#fff;fill-opacity:1;fill-rule:nonzero;stroke:none" transform="translate(-1824.291 -28.225) scale(10.54837)"/><path d="M177.871 5.93a.514.514 0 0 0-.516.511.513.513 0 0 0 1.027 0 .511.511 0 0 0-.51-.511M176.633 10.117c.32.278.726.543 1.238.781a5.284 5.284 0 0 0 1.238-.78l-1.238-1.243" style="fill:#172657;fill-opacity:1;fill-rule:nonzero;stroke:none" transform="translate(-1824.291 -28.225) scale(10.54837)"/><path d="M177.871 7.441a1 1 0 1 1 0-2 1 1 0 0 1 0 2m2.52-.277v-1.71s-1.457.046-2.52-.77c-1.062.816-2.52.77-2.52.77v1.71s-.007.367.055.77a13.454 13.454 0 0 1 2.465-.223c.844 0 1.668.074 2.465.223.062-.403.055-.77.055-.77" style="fill:#172657;fill-opacity:1;fill-rule:nonzero;stroke:none" transform="translate(-1824.291 -28.225) scale(10.54837)"/><path d="M175.434 8.074a3.639 3.639 0 0 0 .797 1.637l1.64-1.645 1.64 1.645a3.59 3.59 0 0 0 .762-1.477c.012-.05.028-.105.036-.16a13.503 13.503 0 0 0-2.438-.219c-.836 0-1.648.075-2.437.22" style="fill:#172657;fill-opacity:1;fill-rule:nonzero;stroke:none" transform="translate(-1824.291 -28.225) scale(10.54837)"/><path d="M176.16 6.84h.235c.008 0 .015-.004.015-.016v-.48c0-.008-.008-.016-.015-.016h-.192a.06.06 0 0 0-.058.059v.437c0 .012.008.016.015.016M175.836 6.84h.234c.008 0 .016-.004.016-.016v-.437c0-.032-.027-.059-.063-.059h-.187c-.012 0-.016.008-.016.016v.48c0 .012.004.016.016.016" style="fill:#fff;fill-opacity:1;fill-rule:nonzero;stroke:none" transform="translate(-1824.291 -28.225) scale(10.54837)"/><path d="M176.52 6.41h-.047v.48h-.301v.005a.056.056 0 0 1-.055.054c-.031 0-.055-.023-.058-.054V6.89h-.301v-.48h-.047a.017.017 0 0 0-.016.015v.511c0 .004.008.012.016.012h.297c.023.04.062.063.11.063a.119.119 0 0 0 .105-.063h.296c.012 0 .016-.008.016-.011v-.512c0-.008-.004-.016-.016-.016M179.7 6.79h-.196a.017.017 0 0 0-.016.015l.063.406c.004.016.015.031.035.031h.031c.02 0 .031-.015.035-.031l.063-.406c.004-.008-.004-.016-.016-.016M179.727 6.61c.05-.044.168-.173.156-.243-.016-.082-.23-.191-.246-.277a.282.282 0 0 1 .027-.133c.008-.008-.004-.008-.012-.004-.004.004-.18.137-.18.23-.003.036.024.075.067.114.035.027.082.055.117.09.02.015.031.031.043.058.016.047-.035.125-.066.164h-.07a.343.343 0 0 0 .074-.125c.027-.109-.246-.136-.207-.304.004-.004-.004-.004-.008-.004-.004.004-.11.105-.11.18 0 .058.125.117.184.199a.065.065 0 0 1 0 .054h-.113s-.028-.004-.016.024l.031.094s.004.011.024.011h.359c.02 0 .023-.011.023-.011l.032-.094c.008-.024-.016-.024-.016-.024M177.383 9.844c-.02.008-.11.07-.113.07-.008.008-.008.012-.008.016s.004.011.011.011l.004-.004.02-.003c.008-.008.03-.016.039-.02v.156l-.004.11c0 .015-.004.015-.012.02l-.039.003c-.004 0-.008.008-.008.016 0 0 0 .008.012.008h.168c.011 0 .015-.004.015-.004 0-.012-.008-.02-.011-.02l-.032-.004c-.011 0-.015-.004-.015-.02v-.327c0-.016-.008-.02-.012-.02M177.613 9.922c0-.027.016-.055.055-.055.02 0 .047.016.047.055a.066.066 0 0 1-.043.062c-.043-.023-.059-.039-.059-.062m-.066.008c0 .043.039.074.066.09-.054.023-.086.066-.086.109 0 .066.055.105.133.105.094 0 .14-.058.14-.117 0-.058-.05-.09-.081-.11.02-.01.062-.038.062-.093 0-.05-.043-.082-.11-.082-.089 0-.124.059-.124.098m.055.199c0-.05.027-.074.047-.09.043.024.078.047.078.09s-.024.066-.063.066c-.035 0-.062-.03-.062-.066M177.953 9.922c0-.027.016-.055.055-.055.023 0 .047.016.047.055 0 .035-.02.055-.04.062-.042-.023-.062-.039-.062-.062m-.062.008c0 .043.035.074.062.09-.05.023-.082.066-.082.109 0 .066.05.105.133.105.09 0 .137-.058.137-.117 0-.058-.051-.09-.082-.11.023-.01.062-.038.062-.093 0-.05-.043-.082-.105-.082-.094 0-.125.059-.125.098m.05.199c0-.05.032-.074.051-.09.043.024.074.047.074.09s-.023.066-.062.066c-.035 0-.063-.03-.063-.066M178.414 9.84h-.152c-.012 0-.016.008-.016.012l-.012.132c0 .004 0 .016.016.02.031 0 .121.031.121.105 0 .067-.043.086-.078.086-.04 0-.059-.02-.059-.058 0-.016-.008-.016-.011-.016-.008 0-.012.012-.012.012v.066c0 .012 0 .02.012.024a.098.098 0 0 0 .05.011c.118 0 .168-.078.168-.144 0-.086-.082-.13-.164-.149l.004-.043h.086c.036 0 .036.008.036.02s.011.012.011.012c.008 0 .012-.004.012-.008l.008-.07c0-.004 0-.012-.012-.012" style="fill:#fff;fill-opacity:1;fill-rule:nonzero;stroke:none" transform="translate(-1824.291 -28.225) scale(10.54837)"/><path d="M176.23 9.71c.118.138.25.274.403.407l1.238-1.242 1.238 1.242c.153-.133.286-.27.403-.406l-1.64-1.645" style="fill:#fff;fill-opacity:1;fill-rule:nonzero;stroke:none" transform="translate(-1824.291 -28.225) scale(10.54837)"/><path d="M177.871 7.71c-.844 0-1.668.075-2.465.224.008.046.016.093.028.14.789-.144 1.601-.219 2.437-.219.836 0 1.648.075 2.438.22.011-.048.019-.095.027-.141a13.455 13.455 0 0 0-2.465-.223M177.871 6.953a.517.517 0 0 1-.516-.512.514.514 0 0 1 1.028 0c0 .282-.23.512-.512.512m1-.516a.996.996 0 0 0-1-.996 1 1 0 1 0 0 2 1 1 0 0 0 1-1.004" style="fill:#fff;fill-opacity:1;fill-rule:nonzero;stroke:none" transform="translate(-1824.291 -28.225) scale(10.54837)"/><path d="M173.09 7.602a4.79 4.79 0 0 1 4.781-4.786 4.79 4.79 0 0 1 4.781 4.786 4.79 4.79 0 0 1-4.78 4.785 4.79 4.79 0 0 1-4.782-4.785" style="fill:#172657;fill-opacity:1;fill-rule:nonzero;stroke:none" transform="translate(-1824.291 -28.225) scale(10.54837)"/><path d="M177.871 11.086a3.483 3.483 0 0 1-3.484-3.484 3.483 3.483 0 0 1 3.484-3.485 3.483 3.483 0 0 1 3.484 3.485 3.483 3.483 0 0 1-3.484 3.484M173.84 8.734c0 .075.062.133.137.133a.132.132 0 0 0 .132-.133.132.132 0 0 0-.132-.132.135.135 0 0 0-.137.132M181.953 8.754a.138.138 0 0 1-.137.137.138.138 0 0 1-.136-.137c0-.074.062-.137.136-.137.075 0 .137.063.137.137M174.23 6.418c-.046.148-.207.215-.39.156-.227-.07-.223-.207-.2-.285a.239.239 0 0 1 .118-.137.327.327 0 0 1 .265-.007c.102.03.164.074.196.132.031.059.02.114.011.141M174.035 6a.325.325 0 0 0-.258.012.38.38 0 0 0-.183.234.393.393 0 0 0 .015.293.359.359 0 0 0 .215.176c.164.05.375 0 .453-.242a.379.379 0 0 0-.02-.293.356.356 0 0 0-.222-.18" style="fill:#fff;fill-opacity:1;fill-rule:nonzero;stroke:none" transform="translate(-1824.291 -28.225) scale(10.54837)"/><path d="m174.98 5.125-.125-.117.024-.028s.043.028.058.036c.067.035.118 0 .145-.028.047-.05.04-.113.008-.144-.031-.032-.07-.047-.156-.035l-.051.007c-.121.02-.195 0-.254-.054-.074-.07-.07-.184.02-.278.074-.078.117-.082.117-.082l.105.102-.023.027s-.028-.031-.074-.035c-.02-.004-.055-.004-.09.035-.043.047-.047.098-.008.133.027.02.054.031.152.016l.031-.004c.137-.024.211-.008.274.054a.195.195 0 0 1 .058.176.252.252 0 0 1-.078.13c-.035.042-.093.089-.133.089M180.887 5.281l.144-.093.02.027s-.04.035-.047.05c-.05.06-.024.118-.004.145.043.063.105.067.14.04.036-.024.06-.06.067-.15l.004-.05c.008-.121.039-.191.105-.234.086-.063.196-.032.266.078.059.086.059.129.059.129l-.125.086-.024-.036s.04-.015.055-.058a.098.098 0 0 0-.02-.098c-.035-.05-.082-.062-.125-.035-.027.02-.043.047-.046.145l-.004.03c-.008.141-.036.208-.11.259a.205.205 0 0 1-.183.02.253.253 0 0 1-.114-.102c-.03-.043-.066-.114-.058-.153M175.504 4.223c.035-.028.047-.016.074.023l.027-.023-.113-.149-.023.02c.027.039.035.05 0 .078l-.11.082-.136-.188s.082-.062.101-.078c.051-.035.074-.011.102.028l.023-.024-.082-.11-.36.266.02.028c.028-.02.07-.059.11-.004.039.05.297.398.297.398.046.059.023.07-.02.102l.023.027.364-.273-.094-.125-.023.02c.039.054.03.09-.004.116l-.118.086-.164-.222M180.258 4.262c.039.023.031.039.004.078l.027.015.102-.156-.028-.015c-.023.039-.035.05-.074.027l-.105-.074.125-.196s.09.059.11.075c.05.035.034.062.007.101l.027.02.078-.121-.37-.246-.016.027c.023.015.074.043.039.098l-.277.414c-.04.062-.06.043-.102.015l-.02.028.38.253.085-.125-.027-.02c-.035.06-.074.06-.11.036-.027-.02-.12-.078-.12-.078l.155-.23v-.004M175.887 3.684c-.02-.04 0-.051.05-.079l-.015-.027-.254.129.016.027s.062-.043.09.008c.011.024.246.477.246.477.019.039 0 .05-.047.078l.011.027.274-.14-.016-.028c-.039.024-.082.051-.105.004-.028-.047-.25-.476-.25-.476M177.348 3.516l-.055-.278c-.008-.043.012-.05.066-.058l-.008-.035-.242.05.008.032s.074-.028.086.03c0 .013.059.294.059.294.02.094.027.168-.004.222a.2.2 0 0 1-.11.07.174.174 0 0 1-.113-.015c-.043-.02-.082-.058-.11-.2l-.062-.304c-.008-.043.012-.047.067-.058l-.004-.036-.282.06.008.03s.074-.027.086.032c.004.011.063.308.063.308.023.113.062.184.129.223a.304.304 0 0 0 .21.023.277.277 0 0 0 .176-.101c.063-.082.051-.188.032-.29M178.957 3.344c.012-.043.031-.04.086-.031l.008-.028-.277-.066-.008.031s.082.008.066.063c-.008.03-.121.527-.121.527-.012.043-.031.039-.086.023l-.008.032.297.07.008-.031c-.043-.008-.098-.016-.086-.067.016-.05.121-.523.121-.523M181.848 5.738c.039-.015.05 0 .074.051l.031-.016-.125-.253-.027.015s.043.063-.012.09l-.48.238c-.04.02-.051 0-.075-.054l-.03.015.136.278.027-.016c-.02-.04-.047-.086 0-.11l.48-.238M182.078 6.07l-.14.02.011.035c.047-.008.082-.012.098.047.004.012.012.035.039.133l-.531.156c-.043.012-.051-.008-.067-.059l-.03.004.085.297.031-.012c-.015-.043-.035-.09.016-.105.047-.016.465-.137.531-.156.031.097.035.117.04.129.019.058-.012.074-.055.093l.011.04.13-.063M180.95 4.652c-.06.063-.106.063-.13.059-.02 0-.027-.008-.05-.031l-.047-.043.21-.215.032.027c.03.035.07.117-.016.203m.16-.082a.332.332 0 0 0-.093-.144l-.188-.192-.023.024s.062.047.023.09c-.023.02-.379.379-.379.379-.035.035-.05.02-.09-.02l-.023.023.219.215.023-.02c-.031-.034-.074-.07-.039-.105l.145-.144.058.058-.027.153a.49.49 0 0 0-.004.183c.008.028.023.047.058.082l.067.067.02-.02-.016-.02c-.008-.011-.028-.042-.028-.113 0-.062.012-.148.024-.253l.004-.043c.105.007.172-.008.223-.06.05-.05.05-.112.046-.14M173.871 7.152c-.027-.004-.05-.004-.082-.02a3.078 3.078 0 0 1-.266-.194c-.023-.024-.03-.032-.039-.051a.142.142 0 0 1-.008-.035.086.086 0 0 0 .004-.028h-.03l-.024.227.035.004.004-.024c0-.008.008-.011.012-.011.011.003.027.007.043.015.015.008.218.149.218.149s-.242.113-.265.12c-.004.005-.02.009-.028.009-.004 0-.008-.004-.008-.008V7.28l-.03-.004-.02.258h.027s.004-.031.02-.055a.206.206 0 0 1 .066-.054c.05-.028.258-.13.27-.133.027-.008.046-.016.093-.012 0 0 .09.008.149.016.058.004.054.035.05.082h.036l.023-.3-.027-.005c-.004.051-.004.098-.07.094l-.153-.016M181.875 7.293c.027 0 .055-.004.09.008.035.011.258.113.297.14.023.016.035.024.047.04a.072.072 0 0 1 .011.035v.023h.035l-.023-.226h-.031l.004.023c0 .008-.008.016-.016.016-.011 0-.023-.004-.043-.008-.016-.004-.246-.106-.246-.106s.219-.156.238-.168a.083.083 0 0 1 .028-.011c.004 0 .008 0 .008.004v.003a.067.067 0 0 1 .004.024l.035-.004-.028-.258-.03.008s.003.031-.009.055a.242.242 0 0 1-.054.066 5.322 5.322 0 0 1-.243.18c-.023.011-.039.023-.086.027 0 0-.093.012-.148.016-.062.007-.066-.028-.066-.07l-.036.003.032.301h.03c-.003-.05-.015-.098.052-.105.066-.004.148-.016.148-.016M174.805 5.371l-.024.043-.668.149.328.203c.067.043.09-.012.114-.051l.027.015-.133.22-.027-.016c.02-.036.047-.07-.02-.11-.066-.039-.5-.308-.5-.308l.024-.036c.11-.027.656-.144.672-.148 0 0-.278-.172-.336-.21-.063-.036-.086.01-.106.042l-.027-.016.125-.203.027.02c-.02.031-.043.058.02.098l.504.308M178.313 3.852l-.047-.004-.446-.52-.023.387c-.004.078.055.074.098.074v.035l-.258-.015.004-.032c.039 0 .078.008.086-.07l.035-.586h.043c.074.09.437.516.45.527l.022-.394c.005-.07-.05-.07-.085-.074l.004-.032.234.016-.004.031c-.035-.004-.07-.007-.078.063l-.035.594M179.969 3.676l.008-.031-.207-.09-.016.03.027.009c.004.004.012.011.008.02 0 .011-.011.027-.023.038l-.191.196-.125.12c0-.015.011-.265.02-.374l.003-.09c0-.008 0-.024.008-.027 0-.004.008-.008.02-.004l.027.011.012-.03-.243-.106-.011.03s.035.013.043.032c.011.016.015.043.015.074l-.011.645.027.012.367-.336.129-.118s.047-.039.09-.019M178.098 11.36v.21h-.059v-.21h-.14v.019c.011 0 .027.023.027.05v.458h-.297v-.41h.195v-.098h-.347v.016c.011 0 .027.027.027.05v.54h.422v.148c.008.004.11.004.113.004v-.465h.059v.465h.125v-.778M181.45 10.191c-.102-.082-.473-.39-.481-.394 0 0-.38.46-.39.469.01.004.07.054.077.058l.309-.37.402.331a1.147 1.147 0 0 1-.058.074s-.204-.168-.211-.172l-.078.09c.008.004.21.172.21.172l-.039.051s-.207-.168-.21-.176a2.59 2.59 0 0 1-.086.106c0 .004.008.011.011.011.008-.011.035-.003.059.012l.156.133s-.086.098-.09.105l.075.063c.004-.008.457-.555.464-.559-.008-.004-.066-.058-.074-.062 0 .004-.023.027-.047.058M176.406 11.07c-.008.008-.32.696-.328.703.012.004.11.051.113.051.004-.008.32-.695.325-.703l-.11-.05M176.23 10.988c0 .004-.004.012-.004.02.012.004.016.031.004.055l-.058.128s-.113-.05-.121-.05c-.004.007-.035.078-.04.086l.118.054s-.192.418-.195.422l.101.05.32-.706-.125-.059" style="fill:#fff;fill-opacity:1;fill-rule:nonzero;stroke:none" transform="translate(-1824.291 -28.225) scale(10.54837)"/><path d="m175.91 11.207-.008-.008.004-.004a.647.647 0 0 0 .2-.246c-.012 0-.16-.07-.165-.074l-.008.016c0 .004.032.027.004.082 0 .004-.09.195-.351.28.004.009.027.071.031.075 0 0 .086-.008.207-.078l.004-.004v.008a.75.75 0 0 1 .07.234c.012-.008.098-.058.102-.058a1.062 1.062 0 0 0-.09-.223M179.477 11.676c.004-.004.464-.227.464-.227l.075.153.113-.055-.117-.238c-.008.003-.57.277-.578.277l.043.09M179.79 10.848c-.005.004-.13.062-.138.066a.03.03 0 0 1 .008.016c.016-.008.04.007.051.035l.16.34.114-.055-.063-.129s.106-.047.11-.05a.468.468 0 0 0-.036-.079c-.008 0-.11.051-.11.051s-.089-.188-.097-.195M179.531 11.39a.114.114 0 0 1-.098-.207c.051-.023.118 0 .145.055.027.059.008.125-.047.153m-.25-.008c.047.094.172.133.285.078.11-.05.16-.176.114-.27a.18.18 0 0 0-.121-.097c.046-.02.082-.04.085-.04l-.043-.09c-.008.009-.156.079-.156.079s-.023-.055-.031-.063l-.133.07c0 .005.004.009.004.013.012-.004.031.011.043.03l.004.005s-.16.078-.168.078l.043.09s.031-.02.074-.04a.183.183 0 0 0 0 .157M174.52 10.246s-.094-.11-.098-.117c-.004.004-.012.008-.012.012.008.011 0 .039-.023.054l-.137.121.39.45a.61.61 0 0 1 .075-.067 21.763 21.763 0 0 1-.313-.351l.118-.102M174.645 9.96c.054-.046.128-.042.171.005.04.05.032.12-.02.172-.05.043-.128.039-.167-.008-.043-.047-.035-.121.016-.168m.34.324-.051.047s-.043-.055-.079-.094c.008-.004.012-.011.02-.015.012-.008.02-.02.027-.032l.082.094m-.226-.012.101.118-.148.132c.004.008.074.09.082.094.004-.004.414-.36.418-.367-.004-.008-.094-.105-.098-.113-.004 0-.012.008-.012.011.008.008 0 .036-.023.051l-.02.02-.117-.133a.232.232 0 0 0-.058-.18c-.082-.097-.227-.113-.313-.035-.09.078-.093.219-.011.317.054.062.128.09.199.085" style="fill:#fff;fill-opacity:1;fill-rule:nonzero;stroke:none" transform="translate(-1824.291 -28.225) scale(10.54837)"/><path d="M177.871 5.93a.514.514 0 0 0-.516.507.514.514 0 1 0 1.027 0 .51.51 0 0 0-.51-.507M176.633 10.117c.32.278.726.543 1.238.781a5.284 5.284 0 0 0 1.238-.78l-1.238-1.243" style="fill:#172657;fill-opacity:1;fill-rule:nonzero;stroke:none" transform="translate(-1824.291 -28.225) scale(10.54837)"/><path d="M177.871 7.441a1 1 0 1 1 0-2 1 1 0 1 1 0 2m2.52-.277v-1.71s-1.457.046-2.52-.77c-1.062.816-2.52.77-2.52.77v1.71s-.007.367.055.77a13.454 13.454 0 0 1 2.465-.223c.844 0 1.668.074 2.465.223.062-.403.055-.77.055-.77" style="fill:#172657;fill-opacity:1;fill-rule:nonzero;stroke:none" transform="translate(-1824.291 -28.225) scale(10.54837)"/><path d="M175.434 8.074c.011.055.023.11.039.16.117.454.328.973.757 1.477l1.641-1.645 1.64 1.645a3.59 3.59 0 0 0 .798-1.637 13.535 13.535 0 0 0-2.438-.219c-.836 0-1.648.075-2.437.22" style="fill:#172657;fill-opacity:1;fill-rule:nonzero;stroke:none" transform="translate(-1824.291 -28.225) scale(10.54837)"/><path d="M176.16 6.84h.235c.008 0 .015-.004.015-.016v-.48c0-.008-.008-.016-.015-.016h-.192a.06.06 0 0 0-.058.059v.437c0 .012.008.016.015.016M175.836 6.84h.234c.008 0 .016-.004.016-.016v-.437a.06.06 0 0 0-.059-.059h-.191a.017.017 0 0 0-.016.016v.48c0 .012.008.016.016.016" style="fill:#fff;fill-opacity:1;fill-rule:nonzero;stroke:none" transform="translate(-1824.291 -28.225) scale(10.54837)"/><path d="M176.52 6.41h-.047v.48h-.301v.008c0 .028-.027.051-.055.051a.06.06 0 0 1-.058-.05V6.89h-.297v-.48h-.051a.017.017 0 0 0-.016.015v.511c0 .004.008.012.016.012h.297c.023.04.062.067.11.067a.122.122 0 0 0 .105-.067h.296c.008 0 .016-.008.016-.011v-.512c0-.008-.008-.016-.016-.016M179.7 6.79h-.196c-.008 0-.02.007-.016.015l.063.406c.004.016.015.031.035.031h.031c.02 0 .031-.015.035-.031l.063-.406c0-.008-.004-.016-.016-.016M179.727 6.61c.05-.044.168-.173.156-.243-.016-.082-.23-.191-.246-.277a.282.282 0 0 1 .027-.133c.008-.008-.004-.008-.012-.004-.004.008-.18.137-.18.23-.003.036.024.075.067.114.035.027.082.055.121.09a.172.172 0 0 1 .04.058c.015.047-.036.125-.067.164h-.07a.287.287 0 0 0 .07-.125c.031-.109-.242-.136-.203-.304.004-.004-.004-.004-.012-.004-.004.004-.105.105-.105.18 0 .058.125.117.183.199a.065.065 0 0 1 0 .054h-.113s-.027-.004-.016.024l.031.094s.004.011.024.011h.36c.019 0 .023-.011.023-.011l.03-.094c.009-.024-.015-.024-.015-.024M177.383 9.844c-.02.008-.11.07-.113.074-.008.004-.008.008-.008.012 0 .007.004.011.011.011l.004-.004.02-.003a.09.09 0 0 1 .035-.016l.004.008v.144l-.004.11c0 .015-.004.02-.012.02l-.039.003c-.004 0-.008.008-.008.016 0 0 0 .008.012.008h.168c.011 0 .011-.004.011-.004 0-.012-.004-.02-.008-.02l-.03-.004c-.012 0-.016-.004-.016-.02v-.327c0-.016-.008-.02-.012-.02M177.613 9.922c0-.027.016-.055.055-.055.02 0 .047.016.047.055s-.024.055-.043.066c-.043-.027-.059-.043-.059-.066m-.066.008c0 .043.039.074.066.09-.054.027-.086.066-.086.109 0 .066.051.105.133.105.094 0 .137-.058.137-.117 0-.058-.047-.09-.078-.11.02-.01.062-.038.062-.089 0-.055-.043-.086-.11-.086-.089 0-.124.059-.124.098m.055.199c0-.05.027-.074.047-.09.043.024.078.047.078.09s-.024.066-.063.066c-.035 0-.062-.03-.062-.066M177.953 9.922c0-.027.016-.055.055-.055.023 0 .047.016.047.055s-.02.055-.04.066c-.042-.027-.062-.043-.062-.066m-.062.008c0 .043.035.074.062.09-.05.027-.082.066-.082.109 0 .066.05.105.133.105.09 0 .137-.058.137-.117 0-.058-.051-.09-.082-.11.023-.01.062-.038.062-.089 0-.055-.043-.086-.105-.086-.094 0-.125.059-.125.098m.05.199c0-.05.032-.074.051-.09.04.024.074.047.074.09s-.023.066-.062.066c-.035 0-.063-.03-.063-.066M178.414 9.84h-.152c-.012 0-.016.008-.016.012l-.012.132c0 .004 0 .016.016.02.031 0 .117.031.117.11 0 .058-.039.081-.074.081-.04 0-.059-.02-.059-.058 0-.016-.008-.016-.011-.016-.008 0-.012.012-.012.016v.062c0 .012 0 .02.012.028a.173.173 0 0 0 .05.007c.118 0 .168-.078.168-.144 0-.086-.082-.13-.164-.149l.004-.046h.086c.036 0 .036.011.036.023s.011.012.011.012c.008 0 .012-.004.012-.008l.008-.067c0-.007 0-.02-.012-.02" style="fill:#fff;fill-opacity:1;fill-rule:nonzero;stroke:none" transform="translate(-1824.291 -28.225) scale(10.54837)"/><path d="M176.23 9.71c.118.138.25.274.403.407l1.238-1.242 1.238 1.242c.153-.133.286-.27.403-.406l-1.64-1.645" style="fill:#fff;fill-opacity:1;fill-rule:nonzero;stroke:none" transform="translate(-1824.291 -28.225) scale(10.54837)"/><path d="M177.871 7.71c-.844 0-1.668.075-2.465.224.008.046.016.093.028.14.789-.144 1.601-.219 2.437-.219.832 0 1.648.075 2.438.22.011-.048.019-.095.027-.141a13.455 13.455 0 0 0-2.465-.223M177.871 6.953a.518.518 0 0 1-.516-.516.514.514 0 0 1 1.028 0c0 .286-.23.516-.512.516m1-.516a.996.996 0 0 0-1-.996 1 1 0 1 0 0 2 1 1 0 0 0 1-1.004" style="fill:#fff;fill-opacity:1;fill-rule:nonzero;stroke:none" transform="translate(-1824.291 -28.225) scale(10.54837)"/><path d="M187.793 5.3v-.429h-.773a.539.539 0 0 1 .027.215c0 .035 0 .07-.004.11a.519.519 0 0 1-.023.105zm-2.711-.792a.853.853 0 0 0-.2.57c0 .227.067.418.2.578a.617.617 0 0 0 .484.235.625.625 0 0 0 .489-.235.857.857 0 0 0 .203-.578.837.837 0 0 0-.203-.57.61.61 0 0 0-.973 0m.59 2.445v.988h2.98v.614h-3.77V7.387a.47.47 0 0 0-.054-.223c-.035-.062-.078-.098-.125-.098v-.113Zm.558-.644a1.503 1.503 0 0 1-.664.144c-.406 0-.75-.133-1.043-.398-.289-.27-.433-.59-.433-.97 0-.382.144-.702.433-.972.293-.27.637-.406 1.043-.406.243 0 .465.05.668.148.207.098.371.235.5.407h1.059V4.07a.443.443 0 0 0-.055-.218c-.039-.067-.078-.098-.12-.098h-.009V3.64h.969v3.554h-.785v-1.28h-1.059c-.133.163-.3.296-.504.394M194.398 8.559h-.789V3.64h.79zM193.29 3.64v4.918h-.742V5.602h-.781v-.606h.78v-.922a.458.458 0 0 0-.054-.222c-.031-.067-.078-.098-.125-.098V3.64Zm-1.984 2.3a5.888 5.888 0 0 1 .617.535c.105.11.2.215.273.32l-.441.579a3.967 3.967 0 0 0-.281-.39 9.022 9.022 0 0 0-.328-.383c-.067-.07-.133-.133-.204-.2a2.485 2.485 0 0 0-.222-.18c-.137.196-.29.383-.453.555a2.812 2.812 0 0 1-.563.461l-.348-.347c.18-.168.364-.368.551-.61.188-.242.328-.492.434-.75.078-.195.144-.394.2-.59.058-.191.085-.394.089-.597.008-.172-.02-.29-.078-.36-.063-.066-.117-.105-.164-.105v-.113h1.14c0 .418-.05.793-.144 1.117a4.041 4.041 0 0 1-.371.875c.105.058.199.117.293.183M195.32 7.59V4.2c0-.087-.02-.16-.054-.227-.036-.067-.078-.098-.125-.098V3.77h2.222v.613h-1.254v2.594h1.88V4.074c0-.086-.02-.16-.06-.222-.035-.067-.077-.098-.117-.098V3.64h.91v1.351h.356V3.641h.785v4.921h-.785v-2.96h-.355v2.96h-.735V7.59M205.14 3.64v1.348h.774v.61h-.773v.867h-.793V4.07a.446.446 0 0 0-.051-.222c-.035-.067-.078-.102-.125-.102v-.105Zm-3.413 1.122a.778.778 0 0 0-.18.511c0 .196.062.368.18.512a.566.566 0 0 0 .883 0 .772.772 0 0 0 .18-.512c0-.199-.06-.37-.18-.511a.566.566 0 0 0-.883 0m3.425 2.12V8.56h-.793V7.5h-3.293v-.617Zm-4.492-2.468v-.617h1.176V3.77a.522.522 0 0 0-.059-.196c-.035-.054-.074-.082-.113-.082h-.004v-.105h.969v.41h1.101v.617h-.644c.152.11.27.242.355.395.086.156.125.328.125.503 0 .329-.133.614-.41.848a1.475 1.475 0 0 1-.992.352c-.383 0-.711-.117-.984-.352-.274-.234-.414-.52-.414-.848 0-.175.043-.347.128-.503.086-.153.204-.286.348-.395M209.809 4.39h-3.075v-.613h3.86v3.934h.476v.61h-4.593v-.61h.82v-1.3c0-.087-.02-.161-.055-.227-.035-.063-.078-.098-.129-.098V5.98h.883v1.73h.426V5.98h.758v1.73h.629M216.96 8.582v-4.5c0-.086-.019-.16-.054-.227-.031-.066-.074-.097-.125-.097V3.64h.969v4.941zm-2.69-4.117a.874.874 0 0 0-.204.574c0 .227.07.418.204.574.132.16.292.242.484.242a.614.614 0 0 0 .484-.242.84.84 0 0 0 .203-.574.854.854 0 0 0-.203-.574.61.61 0 0 0-.968 0m-.56 1.55c-.288-.269-.433-.59-.433-.968 0-.383.145-.707.434-.973.289-.27.64-.402 1.043-.402.406 0 .758.133 1.047.402.289.266.433.59.433.973 0 .379-.144.7-.433.969-.29.265-.64.398-1.047.398-.402 0-.754-.133-1.043-.398m2.894 1.504h-3.52v-.614h3.52M223.18 5.613v2.961h-.785v-4.5a.462.462 0 0 0-.051-.226c-.035-.067-.078-.098-.133-.098v-.113h.969v1.355h.773v.621zm-1.114 1.371v.614h-3.398v-.614h.754v-1.21c0-.087-.02-.16-.063-.227-.039-.063-.082-.094-.12-.094v-.11h.956v1.641h.617V4.387h-1.914v-.614h2.707v3.211M224.488 7.586v-3.39a.472.472 0 0 0-.05-.227c-.04-.067-.079-.098-.126-.098v-.105h2.22v.613h-1.25v2.594h1.874V4.07a.41.41 0 0 0-.054-.222c-.04-.067-.079-.098-.122-.098v-.113h.915v1.355h.351V3.637h.79v4.926h-.79V5.598h-.351v2.965h-.739v-.977M234.309 3.64v1.348h.777v.61h-.777v.867h-.79V4.07c0-.086-.019-.16-.054-.222-.035-.067-.074-.102-.125-.102v-.105Zm-3.41 1.122a.761.761 0 0 0-.184.511c0 .196.062.368.183.512a.564.564 0 0 0 .879 0 .776.776 0 0 0 .184-.512c0-.199-.063-.37-.184-.511a.564.564 0 0 0-.879 0m3.422 2.12V8.56h-.789V7.5h-3.293v-.617Zm-4.488-2.468v-.617h1.176V3.77a.46.46 0 0 0-.063-.196c-.03-.054-.07-.082-.11-.082h-.007v-.105h.969v.41h1.105v.617h-.648c.152.11.273.242.355.395.086.156.13.328.13.503 0 .329-.138.614-.411.848a1.482 1.482 0 0 1-.992.352 1.48 1.48 0 0 1-.989-.352c-.273-.234-.41-.52-.41-.848 0-.175.043-.347.13-.503.085-.153.198-.286.343-.395M187.133 11.738c-.41 0-.696-.347-.696-.843 0-.618.344-.711.551-.711.39 0 .664.34.664.824 0 .664-.363.73-.52.73m-.073-1.707c-.676 0-.985.485-.985.934 0 .45.301.933.961.933.578 0 .988-.402.988-.976 0-.55-.37-.89-.964-.89M191.516 10.484h-.102s.012-.109-.055-.199c-.035-.043-.097-.105-.238-.105-.156 0-.254.086-.254.218 0 .09.035.165.238.32l.067.048c.285.222.387.382.387.613a.486.486 0 0 1-.227.422.688.688 0 0 1-.383.097c-.137 0-.332-.023-.402-.097v-.45h.09s.02.133.03.172c.06.196.224.22.313.22.192 0 .293-.122.293-.243 0-.11-.039-.215-.222-.355l-.106-.083c-.246-.195-.351-.367-.351-.57 0-.27.226-.465.558-.465.278 0 .364.07.364.07M206.094 10.484h-.102s.012-.109-.055-.199a.285.285 0 0 0-.238-.105c-.156 0-.254.086-.254.218 0 .09.036.165.239.32l.062.048c.29.222.39.382.39.613a.483.483 0 0 1-.23.422.675.675 0 0 1-.379.097c-.14 0-.332-.023-.406-.097v-.45h.094s.02.133.031.172c.059.196.223.22.312.22.188 0 .293-.122.293-.243 0-.11-.039-.215-.222-.355l-.106-.083c-.25-.195-.351-.367-.351-.57 0-.27.222-.465.558-.465.278 0 .364.07.364.07M192.746 10.223c.156 0 .164.086.164.21h.082v-.37h-1.16v.082h.05c.083 0 .18.023.18.16v1.293c0 .175-.046.187-.156.187h-.039v.082h1.188v-.398h-.09c0 .176-.07.242-.192.242h-.37v-.727h.347c.117 0 .121.043.121.164h.086v-.488h-.086c0 .125-.004.168-.121.168h-.348v-.605M202.816 10.223c.16 0 .164.086.164.21h.086v-.37h-1.164v.082h.055c.078 0 .18.023.18.16v1.293c0 .175-.051.187-.16.187h-.04v.082h1.188v-.398h-.086c0 .176-.07.242-.191.242h-.371v-.727h.347c.117 0 .121.043.121.164h.082v-.488h-.082c0 .125-.004.168-.12.168h-.348v-.605M194.086 11.785c-.094 0-.176-.015-.176-.12V10.27c0-.118.055-.125.2-.125v-.082h-.739v.082h.043c.063 0 .16.015.16.125v1.394c0 .117-.058.121-.203.121v.082h.793v-.082M199.926 11.785c-.094 0-.176-.015-.176-.12V10.27c0-.118.055-.125.2-.125v-.082h-.735v.082h.039c.062 0 .16.015.16.125v1.394c0 .117-.059.121-.2.121v.082h.794v-.082M207.082 11.785c-.094 0-.172-.015-.172-.12V10.27c0-.118.055-.125.195-.125v-.082h-.734v.082h.043c.059 0 .16.015.16.125v1.394c0 .117-.058.121-.203.121v.082h.793v-.082M184.93 10.145h.039v-.082h-.668v.082s.09 0 .148.03a.573.573 0 0 1 .153.165c.082.12.39.633.406.668.031.066.055.113.055.23v.395c0 .152-.082.152-.2.152v.082h.793v-.082h-.058c-.11 0-.2-.012-.2-.156v-.39c0-.071 0-.141.032-.22.043-.097.367-.644.445-.738.05-.058.066-.082.117-.11a.183.183 0 0 1 .094-.026h.062l.004-.082h-.593v.082h.058c.028 0 .035.02.035.039a.279.279 0 0 1-.03.117l-.337.601s-.347-.601-.375-.66c-.004-.012-.027-.05-.023-.07 0-.02.02-.024.015-.02 0 0 .009-.007.028-.007M209.578 10.145h.035v-.082h-.668v.082s.094 0 .149.03a.483.483 0 0 1 .152.165c.082.12.395.633.406.668a.407.407 0 0 1 .059.23v.395c0 .152-.086.152-.2.152v.082h.79v-.082h-.059c-.11 0-.195-.012-.195-.156v-.39c0-.071 0-.141.031-.22.04-.097.363-.644.442-.738.05-.058.07-.082.117-.11a.183.183 0 0 1 .093-.026h.067v-.082h-.594v.082h.059c.027 0 .039.02.039.039a.292.292 0 0 1-.035.117c-.016.035-.332.601-.332.601s-.348-.601-.38-.66c-.003-.012-.027-.05-.023-.07.004-.02.02-.024.016-.02 0 0 .012-.007.031-.007M188.89 11.785v.082h-.663v-.082c.101 0 .21.008.21-.191v-1.531h.114c.21.218 1.219 1.257 1.25 1.292V10.32c0-.18-.145-.175-.235-.175v-.082h.614v.082c-.098 0-.196-.004-.196.175v1.547h-.12l-1.239-1.27v.997c0 .172.102.191.203.191M197.672 11.785v.082h-.668v-.082c.105 0 .215.008.215-.191v-1.531h.11c.21.218 1.218 1.257 1.25 1.292V10.32c0-.18-.141-.175-.231-.175v-.082h.613v.082c-.098 0-.195-.004-.195.175v1.547h-.118l-1.246-1.27.004.997c0 .172.098.191.2.191M196.305 10.145c.062 0 .164.015.164.125v.773c0 .246-.012.45-.13.57a.448.448 0 0 1-.312.121.406.406 0 0 1-.28-.093c-.09-.075-.177-.196-.177-.563v-.808c0-.118.055-.125.2-.125v-.082h-.735v.082h.04c.058 0 .16.02.16.125v.824c0 .297.07.5.214.633.184.164.426.164.532.164.14 0 .32-.016.5-.172.199-.172.226-.446.226-.719v-.73c0-.118.055-.125.2-.125v-.082h-.641v.082M207.645 11.785v.082h.792v-.082h-.066c-.098 0-.187-.012-.187-.12v-1.438h.351c.164 0 .18.086.2.207h.093l-.05-.371h-1.524l-.055.37h.098c.015-.12.035-.206.195-.206h.356v1.441c0 .102-.047.117-.157.117" style="fill:#545459;fill-opacity:1;fill-rule:nonzero;stroke:none" transform="translate(-1824.291 -28.225) scale(10.54837)"/><path d="M204.277 10.953c-.039.027-.066.04-.156.04h-.164v-.782h.11c.124 0 .34.082.34.406 0 .207-.083.301-.13.336m.887.828c-.035-.008-.129-.023-.25-.152-.117-.125-.254-.3-.426-.516 0 0-.054-.07-.074-.086.215-.175.305-.336.305-.527a.423.423 0 0 0-.164-.332c-.137-.09-.301-.102-.446-.106h-.695v.083h.043c.059 0 .16.015.16.125v1.398c0 .102-.047.117-.156.117h-.047v.082h.797v-.082h-.078c-.094 0-.176-.012-.176-.12v-.528h.211l.234.332c.137.187.227.297.329.347.066.036.125.051.257.051h.239v-.082c-.043 0-.063-.004-.063-.004M201.953 10.145v-.082h-.601v.082h.07c.023 0 .043.015.047.035a.314.314 0 0 1-.024.12s-.402 1.036-.425 1.087c-.016-.047-.426-1.145-.426-1.145-.004-.012-.024-.043-.012-.062 0-.008.016-.035.047-.035h.07v-.082h-.683v.082s.093 0 .14.035c.04.023.078.082.11.16l.644 1.55h.078l.711-1.605s.067-.14.188-.14M187.277 14.633c-.406 0-.691-.352-.691-.852 0-.613.344-.707.55-.707.391 0 .66.34.66.828 0 .66-.362.73-.519.73m-.074-1.71c-.676 0-.984.484-.984.933 0 .454.304.938.965.938.578 0 .984-.402.984-.977 0-.55-.371-.894-.965-.894M192.129 13.117c.16 0 .168.086.168.207h.082v-.367h-1.156v.082h.05c.079 0 .18.024.18.156v1.293c0 .172-.05.188-.16.188h-.035v.082h1.18v-.399h-.086c0 .176-.07.239-.192.239h-.371v-.72h.348c.117 0 .12.036.12.161h.083v-.484h-.082c0 .125-.004.164-.121.164h-.348v-.602M195.66 13.117c.16 0 .164.086.164.207h.086v-.367h-1.16v.082h.055c.078 0 .175.024.175.156l.004 1.293c0 .172-.054.188-.164.188h-.035v.082h1.184v-.399h-.086c0 .176-.07.239-.191.239h-.372v-.72h.344c.117 0 .121.036.121.161h.086v-.484h-.086c0 .125-.004.164-.12.164h-.345v-.602M194.05 14.559c0 .015-.01.046-.07.058a.95.95 0 0 1-.203.016.71.71 0 0 1-.492-.211.803.803 0 0 1-.25-.613c0-.274.067-.48.215-.606.113-.094.254-.129.438-.129.585 0 .601.395.601.395h.074v-.446s-.324-.093-.644-.093c-.317 0-.578.074-.766.242a.86.86 0 0 0-.281.66c0 .3.101.54.305.715.195.172.472.254.8.254.356-.004.614-.117.614-.117v-.57c0-.188.082-.176.18-.176v-.083h-.731v.083c.094 0 .21-.012.21.175M189.129 14.598c-.094 0-.172-.012-.172-.121v-1.32c0-.114.055-.118.2-.118v-.082h-.735v.082h.039c.059 0 .16.016.16.117v1.399c0 .117-.058.12-.2.12v.083h1.235v-.399h-.086c0 .176-.066.239-.187.239M190.543 14.598c-.094 0-.172-.012-.172-.121v-1.32c0-.114.055-.118.195-.118v-.082h-.73v.082h.039c.059 0 .16.016.16.117v1.399c0 .117-.058.12-.199.12v.083h1.234v-.399h-.086c0 .176-.07.239-.187.239M185.41 12.93c-.316 0-.578.074-.765.242a.87.87 0 0 0-.278.66c0 .3.098.54.297.715.2.172.48.254.809.254a1.49 1.49 0 0 0 .562-.102v-.383h-.074s-.027.297-.492.297a.704.704 0 0 1-.492-.199.792.792 0 0 1-.25-.605c0-.274.066-.48.214-.606.118-.094.254-.129.442-.129.582 0 .566.336.566.336h.078v-.387s-.297-.093-.617-.093M203.379 14.484l-.23-1.523h-.122l-.62 1.3-.634-1.3h-.125l-.234 1.52c-.023.207-.086.19-.195.19v.083h.586v-.082c-.114 0-.192-.004-.176-.152l.113-.887.547 1.12h.082l.559-1.16.117.903c.015.133.035.176-.043.176v.078h.664v-.078h-.074c-.133 0-.192-.027-.215-.188M198.078 14.629c-.406 0-.691-.352-.691-.844 0-.62.343-.71.55-.71.391 0 .66.34.66.823 0 .66-.363.73-.519.73m-.07-1.706c-.676 0-.985.484-.985.933 0 .45.301.934.957.934.583 0 .989-.402.989-.977 0-.55-.371-.89-.961-.89M204.688 13.117c.16 0 .164.086.164.211h.085v-.371h-1.16v.082h.055c.078 0 .18.024.18.16v1.29c0 .171-.051.187-.16.187h-.04v.082h1.184v-.399h-.086c0 .176-.07.239-.191.239h-.371v-.72h.343c.121 0 .125.036.125.161h.082v-.484h-.082c0 .125-.004.164-.125.164h-.343v-.602M214.504 13.117c.156 0 .164.086.164.211h.082v-.371h-1.156v.082h.054c.079 0 .176.024.176.16v1.29c0 .171-.047.187-.156.187h-.04v.082h1.184v-.399h-.085c0 .176-.075.239-.196.239h-.367v-.72h.344c.117 0 .12.036.12.161h.087v-.484h-.086c0 .125-.004.164-.121.164h-.344v-.602M208.152 14.676c-.09 0-.172-.016-.172-.121V13.16c0-.113.055-.12.2-.12v-.083h-.735v.082h.04c.062 0 .16.016.16.121v1.395c0 .117-.059.12-.2.12v.083h.79v-.082M211.055 14.676c-.094 0-.176-.016-.176-.121V13.16c0-.113.055-.12.2-.12v-.083h-.735v.082h.043c.058 0 .16.016.16.121v1.395c0 .117-.059.12-.203.12v.083h.793v-.082M212.02 14.676v.082h-.665v-.082c.106 0 .211.008.211-.196v-1.523h.11c.21.215 1.219 1.254 1.25 1.29v-1.032c0-.184-.145-.176-.235-.176v-.082h.614v.082c-.098 0-.196-.008-.196.176v1.543h-.12l-1.239-1.27.004.992c0 .176.098.196.2.196M200.09 13.117c.164 0 .168.086.168.211h.082v-.371h-1.156v.082h.05c.078 0 .18.024.18.16v1.293c0 .172-.047.184-.156.184h-.04v.082h.731v-.082h-.039c-.11 0-.156-.012-.156-.184v-.613h.344c.12 0 .12.039.12.16h.087v-.484h-.086c0 .125 0 .164-.121.164h-.344v-.602M206.652 14.434c-.132.113-.312.168-.543.168h-.285v-1.485h.13c.28 0 .503.074.667.23.152.141.227.286.227.532 0 .27-.067.445-.196.555m.328-1.207a.856.856 0 0 0-.46-.239 2.95 2.95 0 0 0-.485-.031h-.781v.082h.055c.078 0 .18.024.18.16v1.29c0 .171-.052.187-.16.187h-.04v.082h.875c.344 0 .606-.094.79-.278a.91.91 0 0 0 .257-.656.835.835 0 0 0-.23-.597M209.465 12.922c-.317 0-.578.07-.766.242a.848.848 0 0 0-.281.66c0 .297.102.54.3.711.2.176.477.254.805.254.356 0 .567-.098.567-.098v-.386h-.078s-.028.3-.489.3a.695.695 0 0 1-.492-.203.79.79 0 0 1-.25-.601c0-.274.067-.485.211-.606.117-.093.254-.129.442-.129.586 0 .566.332.566.332h.078v-.386s-.297-.09-.613-.09" style="fill:#545459;fill-opacity:1;fill-rule:nonzero;stroke:none" transform="translate(-1824.291 -28.225) scale(10.54837)"/></svg>